<svg xmlns="http://www.w3.org/2000/svg" xmlns:xlink="http://www.w3.org/1999/xlink" style="margin:auto;background:#f1f2f3;display:block;z-index:1;position:relative" width="1920" height="955" preserveAspectRatio="xMidYMid" viewBox="0 0 1920 955">
<g transform="translate(960,477.5) scale(1,1) translate(-960,-477.5)"><path id="path0" d="M 1155.3490778537373 63.385567808291334
c 0 35.64743159718185 -8.72224390143811 10.239155884296913 -18.961399785735026 10.239155884296913
S 1117.4262782822673 99.03299940547319 1117.4262782822673 63.385567808291334
s 8.72224390143811 -10.239155884296913 18.961399785735026 -10.239155884296913
S 1155.3490778537373 27.738136211109484 1155.3490778537373 63.385567808291334
z" fill="none" stroke="none"></path>
<circle cx="0" cy="0" r="4.855798398608222" fill="#2677ae" opacity="0.9">
  <animateMotion begin="-3.5079556073403353s" dur="10s" repeatCount="indefinite">
    <mpath xlink:href="#path0"></mpath>
  </animateMotion>
</circle><path id="path1" d="M 853.3592674428946 606.9981840949833
c 0 35.95755233443488 -8.798124507361726 10.328233117337678 -19.126357624699402 10.328233117337678
S 815.1065521934959 642.9557364294183 815.1065521934959 606.9981840949833
s 8.798124507361726 -10.328233117337678 19.126357624699402 -10.328233117337678
S 853.3592674428946 571.0406317605484 853.3592674428946 606.9981840949833
z" fill="none" stroke="none"></path>
<circle cx="0" cy="0" r="5.293949646623885" fill="#2677ae" opacity="0.9">
  <animateMotion begin="-4.575222922794228s" dur="10s" repeatCount="indefinite">
    <mpath xlink:href="#path1"></mpath>
  </animateMotion>
</circle><path id="path2" d="M 1527.9003833373326 839.8513766901424
c 0 25.75375276241482 -6.3014501439951145 7.397354516863831 -13.698804660858945 7.397354516863831
S 1500.5027740156147 865.6051294525572 1500.5027740156147 839.8513766901424
s 6.3014501439951145 -7.397354516863831 13.698804660858945 -7.397354516863831
S 1527.9003833373326 814.0976239277276 1527.9003833373326 839.8513766901424
z" fill="none" stroke="none"></path>
<circle cx="0" cy="0" r="4.404180414962788" fill="#2677ae" opacity="0.9">
  <animateMotion begin="-7.902772064475114s" dur="10s" repeatCount="indefinite">
    <mpath xlink:href="#path2"></mpath>
  </animateMotion>
</circle><path id="path3" d="M 564.4990259909599 393.28966369309063
c 0 35.115776865061996 -8.592158169110913 10.086446546347593 -18.678604715458505 10.086446546347593
S 527.1418165600429 428.40544055815263 527.1418165600429 393.28966369309063
s 8.592158169110913 -10.086446546347593 18.678604715458505 -10.086446546347593
S 564.4990259909599 358.1738868280286 564.4990259909599 393.28966369309063
z" fill="none" stroke="none"></path>
<circle cx="0" cy="0" r="7.546793425500774" fill="#2677ae" opacity="0.9">
  <animateMotion begin="-6.939163081022119s" dur="10s" repeatCount="indefinite">
    <mpath xlink:href="#path3"></mpath>
  </animateMotion>
</circle><path id="path4" d="M 764.9862386432584 875.3192775368848
c 0 27.725174033724866 -6.783819178464594 7.963613818197568 -14.747432996662162 7.963613818197568
S 735.4913726499341 903.0444515706097 735.4913726499341 875.3192775368848
s 6.783819178464594 -7.963613818197568 14.747432996662162 -7.963613818197568
S 764.9862386432584 847.5941035031599 764.9862386432584 875.3192775368848
z" fill="none" stroke="none"></path>
<circle cx="0" cy="0" r="7.351231742850203" fill="#2677ae" opacity="0.9">
  <animateMotion begin="-9.156211466334106s" dur="10s" repeatCount="indefinite">
    <mpath xlink:href="#path4"></mpath>
  </animateMotion>
</circle><path id="path5" d="M 673.9574109656521 516.811477600918
c 0 29.30765867828349 -7.171022868090641 8.418157279932492 -15.589180148023134 8.418157279932492
S 642.7790506696058 546.1191362792015 642.7790506696058 516.811477600918
s 7.171022868090641 -8.418157279932492 15.589180148023134 -8.418157279932492
S 673.9574109656521 487.50381892263454 673.9574109656521 516.811477600918
z" fill="none" stroke="none"></path>
<circle cx="0" cy="0" r="5.0417463427332745" fill="#2677ae" opacity="0.9">
  <animateMotion begin="-1.2218086292720898s" dur="10s" repeatCount="indefinite">
    <mpath xlink:href="#path5"></mpath>
  </animateMotion>
</circle><path id="path6" d="M 293.4481166561465 308.50763240116635
c 0 32.00289801189652 -7.830496322059786 9.192321769374534 -17.02281809143432 9.192321769374534
S 259.4024804732779 340.51053041306284 259.4024804732779 308.50763240116635
s 7.830496322059786 -9.192321769374534 17.02281809143432 -9.192321769374534
S 293.4481166561465 276.50473438926986 293.4481166561465 308.50763240116635
z" fill="none" stroke="none"></path>
<circle cx="0" cy="0" r="5.2823874927260706" fill="#2677ae" opacity="0.9">
  <animateMotion begin="-1.7485836631696894s" dur="10s" repeatCount="indefinite">
    <mpath xlink:href="#path6"></mpath>
  </animateMotion>
</circle><path id="path7" d="M 1595.2454843218663 51.78079229817614
c 0 23.537882579698383 -5.759269141841093 6.760881166509111 -12.520150308350203 6.760881166509111
S 1570.205183705166 75.31867487787451 1570.205183705166 51.78079229817614
s 5.759269141841093 -6.760881166509111 12.520150308350203 -6.760881166509111
S 1595.2454843218663 28.242909718477755 1595.2454843218663 51.78079229817614
z" fill="none" stroke="none"></path>
<circle cx="0" cy="0" r="6.821084110722908" fill="#2677ae" opacity="0.9">
  <animateMotion begin="-8.410355807428584s" dur="10s" repeatCount="indefinite">
    <mpath xlink:href="#path7"></mpath>
  </animateMotion>
</circle><path id="path8" d="M 1255.821421146769 741.878580473212
c 0 24.508018898961154 -5.996642922086239 7.03953734331863 -13.03618026540487 7.03953734331863
S 1229.749060615959 766.3865993721731 1229.749060615959 741.878580473212
s 5.996642922086239 -7.03953734331863 13.03618026540487 -7.03953734331863
S 1255.821421146769 717.3705615742508 1255.821421146769 741.878580473212
z" fill="none" stroke="none"></path>
<circle cx="0" cy="0" r="7.307435912029634" fill="#2677ae" opacity="0.9">
  <animateMotion begin="-4.204565891949227s" dur="10s" repeatCount="indefinite">
    <mpath xlink:href="#path8"></mpath>
  </animateMotion>
</circle><path id="path9" d="M 85.81926765243817 378.48184963187657
c 0 24.01851607883889 -5.8768709554605785 6.898935469453724 -12.775806424914302 6.898935469453724
S 60.26765480260956 402.50036571071547 60.26765480260956 378.48184963187657
s 5.8768709554605785 -6.898935469453724 12.775806424914302 -6.898935469453724
S 85.81926765243817 354.46333355303767 85.81926765243817 378.48184963187657
z" fill="none" stroke="none"></path>
<circle cx="0" cy="0" r="7.766221380578989" fill="#2677ae" opacity="0.9">
  <animateMotion begin="-0.2554677280492801s" dur="10s" repeatCount="indefinite">
    <mpath xlink:href="#path9"></mpath>
  </animateMotion>
</circle><path id="path10" d="M 1090.5362647716374 580.0734308261593
c 0 22.163144159954967 -5.42289697530813 6.366009492753023 -11.788906468061153 6.366009492753023
S 1066.958451835515 602.2365749861143 1066.958451835515 580.0734308261593
s 5.42289697530813 -6.366009492753023 11.788906468061153 -6.366009492753023
S 1090.5362647716374 557.9102866662043 1090.5362647716374 580.0734308261593
z" fill="none" stroke="none"></path>
<circle cx="0" cy="0" r="6.6168763320964885" fill="#2677ae" opacity="0.9">
  <animateMotion begin="-2.0131980394598803s" dur="10s" repeatCount="indefinite">
    <mpath xlink:href="#path10"></mpath>
  </animateMotion>
</circle><path id="path11" d="M 349.80816383775624 537.1976150290903
c 0 34.074494957323815 -8.337376425728166 9.787354934550459 -18.124731360278624 9.787354934550459
S 313.55870111719895 571.2721099864142 313.55870111719895 537.1976150290903
s 8.337376425728166 -9.787354934550459 18.124731360278624 -9.787354934550459
S 349.80816383775624 503.12312007176655 349.80816383775624 537.1976150290903
z" fill="none" stroke="none"></path>
<circle cx="0" cy="0" r="7.498820425157929" fill="#2677ae" opacity="0.9">
  <animateMotion begin="-9.675446274136078s" dur="10s" repeatCount="indefinite">
    <mpath xlink:href="#path11"></mpath>
  </animateMotion>
</circle><path id="path12" d="M 1759.610581742755 210.30536209797418
c 0 27.492851960246863 -6.726974415805083 7.896883009858142 -14.623857425663225 7.896883009858142
S 1730.3628668914287 237.79821405822105 1730.3628668914287 210.30536209797418
s 6.726974415805083 -7.896883009858142 14.623857425663225 -7.896883009858142
S 1759.610581742755 182.81251013772732 1759.610581742755 210.30536209797418
z" fill="none" stroke="none"></path>
<circle cx="0" cy="0" r="5.3125661224335" fill="#2677ae" opacity="0.9">
  <animateMotion begin="-4.53341348791662s" dur="10s" repeatCount="indefinite">
    <mpath xlink:href="#path12"></mpath>
  </animateMotion>
</circle><path id="path13" d="M 1833.3120160659657 702.0952130020456
c 0 33.25020238845664 -8.135687818452157 9.550590047748186 -17.686277866200342 9.550590047748186
S 1797.9394603335652 735.3454153905022 1797.9394603335652 702.0952130020456
s 8.135687818452157 -9.550590047748186 17.686277866200342 -9.550590047748186
S 1833.3120160659657 668.845010613589 1833.3120160659657 702.0952130020456
z" fill="none" stroke="none"></path>
<circle cx="0" cy="0" r="6.677928187436838" fill="#2677ae" opacity="0.9">
  <animateMotion begin="-4.969075861524798s" dur="10s" repeatCount="indefinite">
    <mpath xlink:href="#path13"></mpath>
  </animateMotion>
</circle><path id="path14" d="M 533.8828669828339 698.3026757266883
c 0 34.46015035035483 -8.431738915512351 9.898128292123197 -18.329867207635548 9.898128292123197
S 497.2231325675628 732.7628260770432 497.2231325675628 698.3026757266883
s 8.431738915512351 -9.898128292123197 18.329867207635548 -9.898128292123197
S 533.8828669828339 663.8425253763335 533.8828669828339 698.3026757266883
z" fill="none" stroke="none"></path>
<circle cx="0" cy="0" r="7.001083480447576" fill="#2677ae" opacity="0.9">
  <animateMotion begin="-8.764086097237195s" dur="10s" repeatCount="indefinite">
    <mpath xlink:href="#path14"></mpath>
  </animateMotion>
</circle><path id="path15" d="M 755.1285699885453 609.1406308936852
c 0 36.19936871795733 -8.857292345883174 10.397691014732423 -19.254983360615597 10.397691014732423
S 716.6186032673141 645.3399996116425 716.6186032673141 609.1406308936852
s 8.857292345883174 -10.397691014732423 19.254983360615597 -10.397691014732423
S 755.1285699885453 572.9412621757278 755.1285699885453 609.1406308936852
z" fill="none" stroke="none"></path>
<circle cx="0" cy="0" r="4.655243059382676" fill="#2677ae" opacity="0.9">
  <animateMotion begin="-5.546115339310672s" dur="10s" repeatCount="indefinite">
    <mpath xlink:href="#path15"></mpath>
  </animateMotion>
</circle><path id="path16" d="M 1538.4187950829603 67.05107247982785
c 0 23.675801101693203 -5.793015163180251 6.800496061124643 -12.593511224304894 6.800496061124643
S 1513.2317726343506 90.72687358152106 1513.2317726343506 67.05107247982785
s 5.793015163180251 -6.800496061124643 12.593511224304894 -6.800496061124643
S 1538.4187950829603 43.37527137813465 1538.4187950829603 67.05107247982785
z" fill="none" stroke="none"></path>
<circle cx="0" cy="0" r="5.882218715054418" fill="#2677ae" opacity="0.9">
  <animateMotion begin="-9.808576433883669s" dur="10s" repeatCount="indefinite">
    <mpath xlink:href="#path16"></mpath>
  </animateMotion>
</circle><path id="path17" d="M 1349.5859760660533 318.3262118178903
c 0 26.13371693514071 -6.39442010115145 7.506493162221268 -13.900913263372718 7.506493162221268
S 1321.7841495393077 344.459928753031 1321.7841495393077 318.3262118178903
s 6.39442010115145 -7.506493162221268 13.900913263372718 -7.506493162221268
S 1349.5859760660533 292.19249488274954 1349.5859760660533 318.3262118178903
z" fill="none" stroke="none"></path>
<circle cx="0" cy="0" r="4.281171659474414" fill="#2677ae" opacity="0.9">
  <animateMotion begin="-8.808260268642098s" dur="10s" repeatCount="indefinite">
    <mpath xlink:href="#path17"></mpath>
  </animateMotion>
</circle><path id="path18" d="M 1806.0733626122724 306.45862728170016
c 0 36.1865934064546 -8.854166471792082 10.39402151036462 -19.2481879821567 10.39402151036462
S 1767.576986647959 342.6452206881548 1767.576986647959 306.45862728170016
s 8.854166471792082 -10.39402151036462 19.2481879821567 -10.39402151036462
S 1806.0733626122724 270.27203387524554 1806.0733626122724 306.45862728170016
z" fill="none" stroke="none"></path>
<circle cx="0" cy="0" r="6.422156801105059" fill="#2677ae" opacity="0.9">
  <animateMotion begin="-9.23962378626512s" dur="10s" repeatCount="indefinite">
    <mpath xlink:href="#path18"></mpath>
  </animateMotion>
</circle><path id="path19" d="M 1097.7184086722746 288.8220683223742
c 0 35.532087722995115 -8.694021464137101 10.206025197030511 -18.900046661167615 10.206025197030511
S 1059.9183153499393 324.35415604536934 1059.9183153499393 288.8220683223742
s 8.694021464137101 -10.206025197030511 18.900046661167615 -10.206025197030511
S 1097.7184086722746 253.28998059937908 1097.7184086722746 288.8220683223742
z" fill="none" stroke="none"></path>
<circle cx="0" cy="0" r="6.646054610055106" fill="#2677ae" opacity="0.9">
  <animateMotion begin="-0.7794017480830184s" dur="10s" repeatCount="indefinite">
    <mpath xlink:href="#path19"></mpath>
  </animateMotion>
</circle><path id="path20" d="M 761.4912909441068 479.5425338715222
c 0 32.212948584911025 -7.88189167503142 9.252655444602103 -17.134547119633524 9.252655444602103
S 727.2221967048397 511.75548245643324 727.2221967048397 479.5425338715222
s 7.88189167503142 -9.252655444602103 17.134547119633524 -9.252655444602103
S 761.4912909441068 447.3295852866112 761.4912909441068 479.5425338715222
z" fill="none" stroke="none"></path>
<circle cx="0" cy="0" r="6.145324986516906" fill="#2677ae" opacity="0.9">
  <animateMotion begin="-8.543833945331576s" dur="10s" repeatCount="indefinite">
    <mpath xlink:href="#path20"></mpath>
  </animateMotion>
</circle><path id="path21" d="M 1760.4601249596158 111.54241130973702
c 0 34.91788475011504 -8.543737758006872 10.02960519418198 -18.573342952188852 10.02960519418198
S 1723.3134390552382 146.46029605985206 1723.3134390552382 111.54241130973702
s 8.543737758006872 -10.02960519418198 18.573342952188852 -10.02960519418198
S 1760.4601249596158 76.62452655962198 1760.4601249596158 111.54241130973702
z" fill="none" stroke="none"></path>
<circle cx="0" cy="0" r="4.87756652108245" fill="#2677ae" opacity="0.9">
  <animateMotion begin="-9.113523765033998s" dur="10s" repeatCount="indefinite">
    <mpath xlink:href="#path21"></mpath>
  </animateMotion>
</circle><path id="path22" d="M 437.43561458285785 271.96654223127206
c 0 31.698706152558003 -7.756066399030149 9.104947511904959 -16.861013910935107 9.104947511904959
S 403.7135867609876 303.6652483838301 403.7135867609876 271.96654223127206
s 7.756066399030149 -9.104947511904959 16.861013910935107 -9.104947511904959
S 437.43561458285785 240.26783607871405 437.43561458285785 271.96654223127206
z" fill="none" stroke="none"></path>
<circle cx="0" cy="0" r="5.462988179747429" fill="#2677ae" opacity="0.9">
  <animateMotion begin="-2.2403809767796066s" dur="10s" repeatCount="indefinite">
    <mpath xlink:href="#path22"></mpath>
  </animateMotion>
</circle><path id="path23" d="M 374.81901809420555 96.30307981013141
c 0 30.216375206701947 -7.3933684016398376 8.679171601925027 -16.072540003564868 8.679171601925027
S 342.6739380870758 126.51945501683335 342.6739380870758 96.30307981013141
s 7.3933684016398376 -8.679171601925027 16.072540003564868 -8.679171601925027
S 374.81901809420555 66.08670460342947 374.81901809420555 96.30307981013141
z" fill="none" stroke="none"></path>
<circle cx="0" cy="0" r="5.917535489325714" fill="#2677ae" opacity="0.9">
  <animateMotion begin="-6.426819755693295s" dur="10s" repeatCount="indefinite">
    <mpath xlink:href="#path23"></mpath>
  </animateMotion>
</circle><path id="path24" d="M 1782.5887640830158 454.9621581196759
c 0 34.496533810105895 -8.44064125140889 9.908578860349566 -18.349220111758456 9.908578860349566
S 1745.8903238594987 489.4586919297818 1745.8903238594987 454.9621581196759
s 8.44064125140889 -9.908578860349566 18.349220111758456 -9.908578860349566
S 1782.5887640830158 420.46562430957 1782.5887640830158 454.9621581196759
z" fill="none" stroke="none"></path>
<circle cx="0" cy="0" r="7.091849039669429" fill="#2677ae" opacity="0.9">
  <animateMotion begin="-6.946278307577716s" dur="10s" repeatCount="indefinite">
    <mpath xlink:href="#path24"></mpath>
  </animateMotion>
</circle><path id="path25" d="M 1528.8163156482403 477.4963853694198
c 0 27.85366276631683 -6.815257910907309 8.000520156282494 -14.815778067189802 8.000520156282494
S 1499.1847595138609 505.35004813573664 1499.1847595138609 477.4963853694198
s 6.815257910907309 -8.000520156282494 14.815778067189802 -8.000520156282494
S 1528.8163156482403 449.6427226031029 1528.8163156482403 477.4963853694198
z" fill="none" stroke="none"></path>
<circle cx="0" cy="0" r="4.429817463290172" fill="#2677ae" opacity="0.9">
  <animateMotion begin="-6.581838066866849s" dur="10s" repeatCount="indefinite">
    <mpath xlink:href="#path25"></mpath>
  </animateMotion>
</circle><path id="path26" d="M 1796.9264187305246 510.66002003709593
c 0 28.209940929309926 -6.902432355043917 8.102855373312426 -15.005287728356343 8.102855373312426
S 1766.915843273812 538.8699609664059 1766.915843273812 510.66002003709593
s 6.902432355043917 -8.102855373312426 15.005287728356343 -8.102855373312426
S 1796.9264187305246 482.450079107786 1796.9264187305246 510.66002003709593
z" fill="none" stroke="none"></path>
<circle cx="0" cy="0" r="4.872165416467942" fill="#2677ae" opacity="0.9">
  <animateMotion begin="-3.8904563729383668s" dur="10s" repeatCount="indefinite">
    <mpath xlink:href="#path26"></mpath>
  </animateMotion>
</circle><path id="path27" d="M 1283.7843735733425 135.2576395422404
c 0 22.007892637843295 -5.384909900748891 6.321415970444351 -11.706325871193242 6.321415970444351
S 1260.371721830956 157.2655321800837 1260.371721830956 135.2576395422404
s 5.384909900748891 -6.321415970444351 11.706325871193242 -6.321415970444351
S 1283.7843735733425 113.24974690439711 1283.7843735733425 135.2576395422404
z" fill="none" stroke="none"></path>
<circle cx="0" cy="0" r="5.976464433366572" fill="#2677ae" opacity="0.9">
  <animateMotion begin="-4.58153516376422s" dur="10s" repeatCount="indefinite">
    <mpath xlink:href="#path27"></mpath>
  </animateMotion>
</circle><path id="path28" d="M 527.9742211422722 250.30812699025716
c 0 29.640999014651833 -7.252584865287149 8.513903972293612 -15.766488837580761 8.513903972293612
S 496.4412434671107 279.949126004909 496.4412434671107 250.30812699025716
s 7.252584865287149 -8.513903972293612 15.766488837580761 -8.513903972293612
S 527.9742211422722 220.66712797560533 527.9742211422722 250.30812699025716
z" fill="none" stroke="none"></path>
<circle cx="0" cy="0" r="6.168528072086396" fill="#2677ae" opacity="0.9">
  <animateMotion begin="-2.591396540297656s" dur="10s" repeatCount="indefinite">
    <mpath xlink:href="#path28"></mpath>
  </animateMotion>
</circle><path id="path29" d="M 1048.450194661003 24.31357547898723
c 0 27.42580887424046 -6.7105702564630905 7.8776259532392805 -14.588196209702371 7.8776259532392805
S 1019.2738022415983 51.73938435322769 1019.2738022415983 24.31357547898723
s 6.7105702564630905 -7.8776259532392805 14.588196209702371 -7.8776259532392805
S 1048.450194661003 -3.112233395253231 1048.450194661003 24.31357547898723
z" fill="none" stroke="none"></path>
<circle cx="0" cy="0" r="5.710812583491536" fill="#2677ae" opacity="0.9">
  <animateMotion begin="-2.418405968862513s" dur="10s" repeatCount="indefinite">
    <mpath xlink:href="#path29"></mpath>
  </animateMotion>
</circle></g>
</svg>