<svg viewBox="0 0 500 250" xmlns="http://www.w3.org/2000/svg">
  <path fill="#000000" d="M 78.686 137.793 L 96.758 137.793 L 109.798 114.681 L 137.646 162.977 L 155.126 162.977 L 109.798 82.977 L 78.686 137.793 Z"></path>
  <path d="M 110.982 138.089 L 124.902 162.977 L 65.054 162.977 L 73.35 148.457 L 105.054 148.457 L 110.982 138.089 Z" style="fill: rgb(38, 120, 174);"></path>
  <path d="M 249.75 179.641 L 251.45 172.141 C 251.98 172.382 252.624 172.614 253.381 172.838 C 253.686 172.927 253.992 173.012 254.3 173.091 C 255.323 173.358 256.374 173.507 257.431 173.537 C 257.537 173.539 257.644 173.54 257.75 173.541 C 258.872 173.547 259.993 173.459 261.101 173.277 C 262.321 173.069 263.421 172.737 264.4 172.283 C 265.094 171.963 265.749 171.563 266.35 171.091 C 267.18 170.422 267.932 169.662 268.591 168.825 C 269.246 168.005 269.877 167.068 270.486 166.012 C 271.019 165.078 271.508 164.12 271.95 163.141 C 268.173 155.924 264.712 148.547 261.576 141.031 C 261.111 139.92 260.652 138.806 260.2 137.691 C 256.567 128.724 253.55 119.641 251.15 110.441 L 261.15 110.441 C 261.883 113.441 262.767 116.674 263.8 120.141 C 264.833 123.607 265.983 127.174 267.25 130.841 C 268.517 134.507 269.883 138.174 271.35 141.841 C 272.817 145.507 274.35 149.041 275.95 152.441 C 278.483 145.441 280.683 138.507 282.55 131.641 C 284.417 124.774 286.183 117.707 287.85 110.441 L 297.45 110.441 C 295.05 120.241 292.383 129.657 289.45 138.691 C 287.509 144.69 285.381 150.628 283.069 156.495 C 282.069 159.026 281.029 161.542 279.95 164.041 C 278.617 167.041 277.233 169.624 275.8 171.791 C 275.056 172.924 274.225 173.998 273.314 175.002 C 272.614 175.77 271.857 176.486 271.05 177.141 C 269.317 178.541 267.367 179.574 265.2 180.241 C 263.923 180.627 262.614 180.897 261.289 181.048 C 260.147 181.179 258.999 181.243 257.85 181.241 C 257.117 181.241 256.35 181.191 255.55 181.091 C 254.75 180.991 253.967 180.857 253.2 180.691 C 252.788 180.601 252.378 180.502 251.97 180.394 C 251.678 180.316 251.388 180.231 251.1 180.141 C 250.467 179.941 250.017 179.774 249.75 179.641 Z M 232.35 159.441 L 232.35 157.241 C 231.577 157.756 230.105 158.411 227.934 159.206 C 227.856 159.234 227.778 159.262 227.7 159.291 C 226.447 159.737 225.153 160.058 223.836 160.248 C 222.531 160.443 221.135 160.541 219.65 160.541 C 217.098 160.554 214.558 160.194 212.11 159.473 C 211.669 159.341 211.232 159.197 210.8 159.041 C 208.033 158.041 205.617 156.491 203.55 154.391 C 202.09 152.892 200.861 151.186 199.902 149.327 C 199.431 148.423 199.013 147.493 198.65 146.541 C 198.044 144.931 197.602 143.264 197.329 141.566 C 197.07 140.009 196.916 138.347 196.867 136.581 C 196.856 136.167 196.85 135.754 196.85 135.341 C 196.841 133.182 197.041 131.027 197.449 128.907 C 197.715 127.542 198.083 126.2 198.55 124.891 C 199.421 122.408 200.7 120.089 202.336 118.03 C 202.706 117.568 203.094 117.121 203.5 116.691 C 205.509 114.574 207.912 112.87 210.573 111.674 C 210.863 111.541 211.155 111.413 211.45 111.291 C 213.583 110.418 215.825 109.841 218.114 109.574 C 219.42 109.416 220.734 109.338 222.05 109.341 C 223.827 109.337 225.604 109.397 227.377 109.52 C 229.015 109.636 230.554 109.81 231.993 110.041 C 232.463 110.116 232.932 110.199 233.4 110.291 C 234.541 110.513 235.681 110.744 236.82 110.982 C 237.709 111.168 238.548 111.35 239.336 111.526 C 240.075 111.691 240.814 111.862 241.55 112.041 L 241.55 158.441 C 241.55 163.463 240.735 167.619 239.106 170.908 C 238.195 172.785 236.918 174.462 235.35 175.841 C 233.475 177.434 231.313 178.654 228.98 179.436 C 227.053 180.112 224.902 180.598 222.527 180.894 C 220.544 181.132 218.548 181.248 216.55 181.241 C 213.283 181.241 210.2 180.974 207.3 180.441 C 206.098 180.221 204.902 179.969 203.714 179.684 C 202.271 179.334 200.95 178.953 199.75 178.541 L 201.45 170.441 C 202.265 170.758 203.093 171.042 203.931 171.293 C 205.24 171.688 206.697 172.054 208.3 172.391 C 210.9 172.929 213.546 173.213 216.201 173.238 C 216.384 173.24 216.567 173.241 216.75 173.241 C 221.873 173.241 225.668 172.298 228.133 170.412 C 228.328 170.262 228.518 170.105 228.7 169.941 C 230.653 168.175 231.823 165.571 232.208 162.131 C 232.305 161.237 232.353 160.339 232.35 159.441 Z M 388.85 138.941 L 353.25 138.941 C 353.362 140.592 353.62 142.23 354.021 143.837 C 354.804 146.891 356.113 149.359 357.95 151.241 C 360.683 154.041 364.95 155.441 370.75 155.441 C 373.251 155.441 375.45 155.275 377.345 154.943 C 377.901 154.846 378.453 154.728 379 154.591 C 380.841 154.123 382.308 153.668 383.401 153.224 C 383.62 153.135 383.836 153.041 384.05 152.941 L 385.35 160.741 C 384.495 161.193 383.158 161.665 381.337 162.155 C 380.694 162.327 380.048 162.489 379.4 162.641 C 376.611 163.297 373.45 163.63 369.918 163.641 C 369.862 163.641 369.806 163.641 369.75 163.641 C 367.909 163.648 366.07 163.522 364.248 163.263 C 361.965 162.927 359.882 162.37 358 161.591 C 354.7 160.224 351.983 158.341 349.85 155.941 C 347.919 153.751 346.429 151.211 345.459 148.458 C 345.332 148.104 345.212 147.749 345.1 147.391 C 344.389 145.086 343.925 142.713 343.717 140.311 C 343.604 139.057 343.549 137.799 343.55 136.541 C 343.543 134.633 343.671 132.727 343.933 130.838 C 344.23 128.753 344.701 126.82 345.345 125.039 C 345.411 124.855 345.479 124.672 345.55 124.491 C 346.197 122.802 347.003 121.179 347.958 119.645 C 348.79 118.312 349.759 117.071 350.85 115.941 C 353.05 113.674 355.583 111.974 358.45 110.841 C 361.317 109.707 364.25 109.141 367.25 109.141 C 369.463 109.121 371.67 109.375 373.821 109.897 C 377.532 110.768 380.869 112.797 383.35 115.691 C 384.976 117.642 386.223 119.88 387.027 122.29 C 387.728 124.294 388.238 126.534 388.555 129.008 C 388.827 131.208 388.959 133.423 388.95 135.641 L 388.95 137.191 C 388.95 137.824 388.917 138.407 388.85 138.941 Z M 315.95 94.341 L 315.95 110.441 L 335.65 110.441 L 335.65 118.241 L 315.95 118.241 L 315.95 142.241 C 315.95 144.112 316.054 145.75 316.261 147.156 C 316.336 147.671 316.432 148.183 316.55 148.691 C 316.95 150.391 317.55 151.724 318.35 152.691 C 319.15 153.657 320.15 154.341 321.35 154.741 C 322.475 155.116 323.776 155.315 325.252 155.339 C 325.351 155.34 325.451 155.341 325.55 155.341 C 326.43 155.343 327.309 155.307 328.186 155.234 C 328.993 155.163 329.739 155.057 330.425 154.917 C 331.063 154.79 331.689 154.614 332.3 154.391 C 334 153.757 335.183 153.307 335.85 153.041 L 337.65 160.741 C 337.378 160.875 337.1 160.999 336.819 161.113 C 336.172 161.377 335.348 161.671 334.345 161.995 C 333.815 162.165 333.283 162.331 332.75 162.491 C 331.447 162.875 330.114 163.148 328.765 163.308 C 327.433 163.467 326.092 163.545 324.75 163.541 C 323.558 163.544 322.366 163.486 321.18 163.367 C 319.2 163.159 317.473 162.767 316 162.191 C 314.659 161.677 313.409 160.952 312.297 160.044 C 311.613 159.479 310.994 158.841 310.45 158.141 C 309.548 156.967 308.828 155.665 308.313 154.278 C 307.973 153.37 307.701 152.439 307.5 151.491 C 307.222 150.177 307.019 148.849 306.89 147.513 C 306.73 145.907 306.65 144.183 306.65 142.341 L 306.65 95.941 L 315.95 94.341 Z M 438.05 111.641 L 435.95 119.541 C 435.167 119.171 434.36 118.853 433.535 118.591 C 432.734 118.335 431.922 118.118 431.1 117.941 C 429.267 117.541 427.317 117.341 425.25 117.341 C 423.606 117.326 421.967 117.516 420.37 117.907 C 417.612 118.56 415.134 120.079 413.3 122.241 C 411.992 123.821 411.005 125.641 410.393 127.599 C 409.888 129.141 409.537 130.851 409.34 132.727 C 409.21 133.994 409.147 135.267 409.15 136.541 C 409.145 138.047 409.246 139.552 409.451 141.045 C 409.6 142.122 409.817 143.19 410.1 144.241 C 410.447 145.548 410.948 146.809 411.591 147.999 C 412.023 148.791 412.528 149.542 413.1 150.241 C 414.364 151.771 415.957 152.997 417.76 153.828 C 417.955 153.919 418.152 154.007 418.35 154.091 C 419.415 154.531 420.524 154.856 421.658 155.06 C 422.682 155.25 423.78 155.369 424.953 155.417 C 425.352 155.433 425.751 155.441 426.15 155.441 C 428.617 155.441 430.85 155.207 432.85 154.741 C 434.759 154.295 436.273 153.82 437.392 153.314 C 437.445 153.29 437.497 153.265 437.55 153.241 L 438.85 161.041 C 438.657 161.16 438.456 161.268 438.25 161.364 C 437.789 161.58 437.222 161.789 436.55 161.991 C 435.55 162.291 434.417 162.557 433.15 162.791 C 432.329 162.941 431.504 163.074 430.677 163.189 C 430.152 163.262 429.626 163.329 429.1 163.391 C 427.667 163.557 426.283 163.641 424.95 163.641 C 423.101 163.649 421.254 163.504 419.428 163.209 C 417.53 162.903 415.675 162.377 413.9 161.641 C 411.443 160.626 409.184 159.185 407.227 157.386 C 406.765 156.957 406.322 156.508 405.9 156.041 C 403.906 153.815 402.366 151.222 401.365 148.407 C 401.254 148.103 401.149 147.798 401.05 147.491 C 399.983 144.191 399.45 140.541 399.45 136.541 C 399.441 134.269 399.647 132.001 400.067 129.769 C 400.341 128.333 400.719 126.92 401.2 125.541 C 401.958 123.337 402.997 121.241 404.292 119.304 C 404.86 118.461 405.48 117.655 406.15 116.891 C 408.283 114.457 410.9 112.557 414 111.191 C 416.375 110.157 418.901 109.511 421.481 109.277 C 422.435 109.185 423.392 109.139 424.35 109.141 C 426.683 109.141 429.017 109.341 431.35 109.741 C 433.683 110.141 435.917 110.774 438.05 111.641 Z M 190.75 110.841 L 189.15 118.941 C 188.417 118.674 187.2 118.357 185.5 117.991 C 184.345 117.741 182.966 117.577 181.364 117.497 C 180.56 117.458 179.755 117.439 178.95 117.441 C 177.217 117.441 175.5 117.624 173.8 117.991 C 173.456 118.065 173.112 118.139 172.768 118.215 C 171.904 118.403 171.249 118.55 170.802 118.656 C 170.684 118.683 170.567 118.711 170.45 118.741 L 170.45 162.441 L 161.15 162.441 L 161.15 112.641 C 162.04 112.319 162.941 112.026 163.85 111.762 C 164.853 111.468 165.935 111.181 167.097 110.902 C 167.846 110.722 168.597 110.552 169.35 110.391 C 171.18 110.005 173.032 109.731 174.895 109.572 C 176.709 109.414 178.529 109.337 180.35 109.341 C 180.722 109.341 181.095 109.351 181.467 109.37 C 181.974 109.394 182.519 109.435 183.1 109.491 C 184.133 109.591 185.15 109.724 186.15 109.891 C 187.15 110.057 188.067 110.224 188.9 110.391 C 189.733 110.557 190.35 110.707 190.75 110.841 Z M 232.25 149.041 L 232.25 118.641 C 231.93 118.55 231.607 118.468 231.282 118.396 C 230.556 118.231 229.7 118.073 228.713 117.923 C 228.642 117.912 228.571 117.901 228.5 117.891 C 227.959 117.812 227.415 117.75 226.87 117.706 C 225.644 117.603 224.191 117.548 222.512 117.542 C 222.391 117.541 222.271 117.541 222.15 117.541 C 220.549 117.526 218.952 117.721 217.401 118.12 C 214.731 118.798 212.348 120.312 210.6 122.441 C 209 124.408 207.862 126.709 207.271 129.176 C 206.85 130.837 206.614 132.644 206.561 134.596 C 206.554 134.877 206.55 135.159 206.55 135.441 C 206.546 136.591 206.61 137.74 206.74 138.883 C 206.879 140.06 207.093 141.152 207.383 142.158 C 207.478 142.488 207.584 142.816 207.7 143.141 C 208.058 144.151 208.508 145.127 209.044 146.056 C 209.54 146.913 210.129 147.712 210.8 148.441 C 212.1 149.841 213.6 150.874 215.3 151.541 C 217 152.207 218.75 152.541 220.55 152.541 C 221.952 152.546 223.352 152.422 224.732 152.171 C 225.62 152.006 226.495 151.779 227.35 151.491 C 228.063 151.251 228.764 150.978 229.451 150.673 C 230.108 150.377 230.704 150.066 231.239 149.738 C 231.589 149.524 231.926 149.291 232.25 149.041 Z M 353.45 131.441 L 379.25 131.441 C 379.317 127.241 378.267 123.791 376.1 121.091 C 374.216 118.709 371.4 117.252 368.368 117.089 C 367.963 117.056 367.556 117.04 367.15 117.041 C 365.017 117.041 363.133 117.457 361.5 118.291 C 359.867 119.124 358.483 120.207 357.35 121.541 C 356.209 122.892 355.317 124.436 354.715 126.1 C 354.71 126.113 354.705 126.127 354.7 126.141 C 354.067 127.874 353.65 129.641 353.45 131.441 Z" vector-effect="non-scaling-stroke" stroke-linecap="round" fill-rule="evenodd" font-size="9pt" stroke="#000" stroke-width="0.25mm" fill="#000" style="stroke: rgb(0, 0, 0); stroke-width: 0.25mm; fill: rgb(0, 0, 0);"></path>
</svg>